<svg width="20" height="20" viewBox="0 0 20 20" fill="none" xmlns="http://www.w3.org/2000/svg">
<g id="message-text-square-01">
<g id="Group 1">
<path id="Icon" d="M1.84619 6.49549C1.84619 5.081 1.84619 4.37376 2.12147 3.83349C2.36361 3.35826 2.74999 2.97189 3.22522 2.72975C3.76548 2.45447 4.47273 2.45447 5.88722 2.45447H12.959C14.3735 2.45447 15.0808 2.45447 15.621 2.72975C16.0962 2.97189 16.4826 3.35826 16.7248 3.83349C17 4.37376 17 5.081 17 6.49549V11.0416C17 12.4561 17 13.1634 16.7248 13.7037C16.4826 14.1789 16.0962 14.5653 15.621 14.8074C15.0808 15.0827 14.3735 15.0827 12.959 15.0827H7.47311C6.94773 15.0827 6.68504 15.0827 6.43378 15.1342C6.21086 15.18 5.99515 15.2557 5.79249 15.3592C5.56408 15.4759 5.35895 15.64 4.9487 15.9682L2.94043 17.5748C2.59014 17.855 2.41499 17.9952 2.26759 17.9953C2.13939 17.9955 2.01812 17.9372 1.93815 17.837C1.84619 17.7218 1.84619 17.4975 1.84619 17.0489V6.49549Z" fill="white"/>
<path id="Icon_2" d="M5.21387 7.08484H9.42327M5.21387 10.6628H11.9489" stroke="#474DE1" stroke-width="1.5" stroke-linecap="round" stroke-linejoin="round"/>
</g>
</g>
</svg>
