<svg width="20" height="20" viewBox="0 0 20 20" fill="none" xmlns="http://www.w3.org/2000/svg">
<g id="star-05">
<g id="Icon">
<path d="M10 1.66666L11.0846 6.00498C11.2962 6.85153 11.402 7.2748 11.6224 7.61923C11.8174 7.92389 12.0761 8.18262 12.3808 8.37756C12.7252 8.59795 13.1485 8.70377 13.995 8.91541L18.3333 9.99999L13.995 11.0846C13.1485 11.2962 12.7252 11.402 12.3808 11.6224C12.0761 11.8174 11.8174 12.0761 11.6224 12.3807C11.402 12.7252 11.2962 13.1484 11.0846 13.995L10 18.3333L8.91542 13.995C8.70378 13.1484 8.59796 12.7252 8.37757 12.3807C8.18262 12.0761 7.92389 11.8174 7.61924 11.6224C7.27481 11.402 6.85154 11.2962 6.00499 11.0846L1.66666 9.99999L6.00499 8.91541C6.85154 8.70377 7.27481 8.59795 7.61924 8.37756C7.92389 8.18262 8.18262 7.92389 8.37757 7.61923C8.59796 7.2748 8.70378 6.85153 8.91542 6.00498L10 1.66666Z" fill="white"/>
<path d="M10 1.66666L11.0846 6.00498C11.2962 6.85153 11.402 7.2748 11.6224 7.61923C11.8174 7.92389 12.0761 8.18262 12.3808 8.37756C12.7252 8.59795 13.1485 8.70377 13.995 8.91541L18.3333 9.99999L13.995 11.0846C13.1485 11.2962 12.7252 11.402 12.3808 11.6224C12.0761 11.8174 11.8174 12.0761 11.6224 12.3807C11.402 12.7252 11.2962 13.1484 11.0846 13.995L10 18.3333L8.91542 13.995C8.70378 13.1484 8.59796 12.7252 8.37757 12.3807C8.18262 12.0761 7.92389 11.8174 7.61924 11.6224C7.27481 11.402 6.85154 11.2962 6.00499 11.0846L1.66666 9.99999L6.00499 8.91541C6.85154 8.70377 7.27481 8.59795 7.61924 8.37756C7.92389 8.18262 8.18262 7.92389 8.37757 7.61923C8.59796 7.2748 8.70378 6.85153 8.91542 6.00498L10 1.66666Z" fill="white"/>
</g>
</g>
</svg>
