<svg width="21" height="20" viewBox="0 0 21 20" fill="none" xmlns="http://www.w3.org/2000/svg">
<g id="message-text-square-01">
<g id="Group 1">
<path id="Icon" d="M2.34615 6.49549C2.34615 5.081 2.34615 4.37376 2.62143 3.83349C2.86357 3.35826 3.24995 2.97189 3.72518 2.72975C4.26544 2.45447 4.97269 2.45447 6.38718 2.45447H13.459C14.8735 2.45447 15.5807 2.45447 16.121 2.72975C16.5962 2.97189 16.9826 3.35826 17.2247 3.83349C17.5 4.37376 17.5 5.081 17.5 6.49549V11.0416C17.5 12.4561 17.5 13.1634 17.2247 13.7037C16.9826 14.1789 16.5962 14.5653 16.121 14.8074C15.5807 15.0827 14.8735 15.0827 13.459 15.0827H7.97307C7.44769 15.0827 7.185 15.0827 6.93374 15.1342C6.71082 15.18 6.49511 15.2557 6.29246 15.3592C6.06404 15.4759 5.85891 15.64 5.44866 15.9682L3.44039 17.5748C3.0901 17.855 2.91495 17.9952 2.76755 17.9953C2.63935 17.9955 2.51808 17.9372 2.43811 17.837C2.34615 17.7218 2.34615 17.4975 2.34615 17.0489V6.49549Z" fill="#333333"/>
<path id="Icon_2" d="M5.71358 7.08478H9.92299M5.71358 10.6628H12.4486" stroke="white" stroke-width="1.5" stroke-linecap="round" stroke-linejoin="round"/>
</g>
</g>
</svg>
