<svg width="60" height="17" viewBox="0 0 60 17" fill="none" xmlns="http://www.w3.org/2000/svg">
<path d="M10.688 8.36C11.664 8.568 12.448 9.056 13.04 9.824C13.632 10.576 13.928 11.44 13.928 12.416C13.928 13.824 13.432 14.944 12.44 15.776C11.464 16.592 10.096 17 8.336 17H0.488V0.151999H8.072C9.784 0.151999 11.12 0.543999 12.08 1.328C13.056 2.112 13.544 3.176 13.544 4.52C13.544 5.512 13.28 6.336 12.752 6.992C12.24 7.648 11.552 8.104 10.688 8.36ZM4.592 6.968H7.28C7.952 6.968 8.464 6.824 8.816 6.536C9.184 6.232 9.368 5.792 9.368 5.216C9.368 4.64 9.184 4.2 8.816 3.896C8.464 3.592 7.952 3.44 7.28 3.44H4.592V6.968ZM7.616 13.688C8.304 13.688 8.832 13.536 9.2 13.232C9.584 12.912 9.776 12.456 9.776 11.864C9.776 11.272 9.576 10.808 9.176 10.472C8.792 10.136 8.256 9.968 7.568 9.968H4.592V13.688H7.616ZM20.4123 0.151999V17H16.3083V0.151999H20.4123ZM27.7544 13.64H35.0024V17H23.0984V13.88L30.2984 3.512H23.0984V0.151999H35.0024V3.272L27.7544 13.64ZM48.1713 14.024H41.8833L40.8753 17H36.5793L42.6753 0.151999H47.4273L53.5233 17H49.1793L48.1713 14.024ZM47.1153 10.856L45.0273 4.688L42.9633 10.856H47.1153ZM59.4826 0.151999V17H55.3786V0.151999H59.4826Z" fill="#111111"/>
</svg>
